<svg width="20" height="20" viewBox="0 0 20 20" fill="none" xmlns="http://www.w3.org/2000/svg">
<path d="M17.48 6.3325C17.4292 6.22917 17.3142 6.17912 17.2009 6.19995C16.6934 6.29412 16.1475 6.26499 15.565 6.02915C14.8084 5.72249 14.2017 5.08749 13.9259 4.31915C13.7325 3.77915 13.7125 3.27169 13.8009 2.79836C13.8217 2.68586 13.7717 2.57085 13.6692 2.52085C12.5617 1.97585 11.315 1.66748 10.0009 1.66748C5.32171 1.66748 1.53921 5.52991 1.67088 10.2382C1.79171 14.5857 5.41588 18.2092 9.76338 18.3309C14.4717 18.4617 18.3342 14.68 18.3342 10.0008C18.3334 8.68581 18.025 7.44 17.48 6.3325ZM14.6084 8.77502L12.2809 11.1025C11.7134 11.6708 10.7875 11.6716 10.2192 11.1033L8.89504 9.78251C8.81337 9.70084 8.68171 9.70084 8.60005 9.78251L6.27421 12.1084C6.15255 12.23 5.99253 12.2917 5.83253 12.2917C5.67253 12.2917 5.51254 12.2309 5.39087 12.1084C5.1467 11.8642 5.1467 11.4683 5.39087 11.2242L7.7167 8.89831C8.28504 8.32998 9.21003 8.33 9.77837 8.8975L11.1025 10.2183C11.1842 10.2991 11.3159 10.2991 11.3975 10.2183L13.725 7.89083C13.9692 7.64666 14.365 7.64666 14.6092 7.89083C14.8534 8.13499 14.8525 8.53086 14.6084 8.77502Z" fill="white"/>
<path d="M18.3333 3.33329C18.3333 4.25413 17.5875 4.99996 16.6667 4.99996C15.7458 4.99996 15 4.25413 15 3.33329C15 2.41246 15.7458 1.66663 16.6667 1.66663C17.5875 1.66663 18.3333 2.41246 18.3333 3.33329Z" fill="#FF7442"/>
</svg>
