<svg width="16" height="17" viewBox="0 0 16 17" fill="none" xmlns="http://www.w3.org/2000/svg">
<path d="M7.99998 1.83337C4.31798 1.83337 1.33331 4.81804 1.33331 8.50004C1.33331 12.182 4.31798 15.1667 7.99998 15.1667C11.682 15.1667 14.6666 12.182 14.6666 8.50004C14.6666 4.81804 11.682 1.83337 7.99998 1.83337ZM10.3533 8.18673L8.35333 10.1867C8.256 10.2841 8.12798 10.3334 7.99998 10.3334C7.87198 10.3334 7.74396 10.2847 7.64663 10.1867L5.64663 8.18673C5.45129 7.99139 5.45129 7.6747 5.64663 7.47937C5.84196 7.28404 6.15865 7.28404 6.35398 7.47937L8.00063 9.12602L9.64728 7.47937C9.84261 7.28404 10.1593 7.28404 10.3546 7.47937C10.55 7.6747 10.5487 7.99139 10.3533 8.18673Z" fill="#06C16A"/>
</svg>
