<svg width="16" height="17" viewBox="0 0 16 17" fill="none" xmlns="http://www.w3.org/2000/svg">
<path d="M7.99998 1.83325C4.31998 1.83325 1.33331 4.81992 1.33331 8.49992C1.33331 12.1799 4.31998 15.1666 7.99998 15.1666C11.68 15.1666 14.6666 12.1799 14.6666 8.49992C14.6666 4.81992 11.68 1.83325 7.99998 1.83325ZM10.6866 7.29993L7.5733 10.4066C7.47997 10.5066 7.3533 10.5533 7.21997 10.5533C7.0933 10.5533 6.96664 10.5066 6.86664 10.4066L5.31331 8.85327C5.11998 8.65994 5.11998 8.3399 5.31331 8.14657C5.50665 7.95323 5.82665 7.95323 6.01998 8.14657L7.21997 9.3466L9.97998 6.59326C10.1733 6.39326 10.4933 6.39326 10.6866 6.59326C10.88 6.78659 10.88 7.09993 10.6866 7.29993Z" fill="#06C16A"/>
</svg>
