<svg width="48" height="48" viewBox="0 0 48 48" fill="none" xmlns="http://www.w3.org/2000/svg">
<rect width="48.0001" height="48.0001" rx="24" fill="#06C16A" fill-opacity="0.1"/>
<path d="M24 14C18.48 14 14 18.48 14 24C14 29.52 18.48 34 24 34C29.52 34 34 29.52 34 24C34 18.48 29.52 14 24 14ZM28.03 22.2L23.36 26.86C23.22 27.01 23.03 27.08 22.83 27.08C22.64 27.08 22.45 27.01 22.3 26.86L19.97 24.53C19.68 24.24 19.68 23.76 19.97 23.47C20.26 23.18 20.74 23.18 21.03 23.47L22.83 25.27L26.97 21.14C27.26 20.84 27.74 20.84 28.03 21.14C28.32 21.43 28.32 21.9 28.03 22.2Z" fill="#06C16A"/>
</svg>
