<svg width="48" height="48" viewBox="0 0 48 48" fill="none" xmlns="http://www.w3.org/2000/svg">
<rect width="48.0001" height="48.0001" rx="2" fill="#00A478" fill-opacity="0.1"/>
<path d="M22.1 22.8375V18.6609H16.4353V15H32.2647V18.7125H26.6V22.8375H22.1Z" fill="#00A478"/>
<path d="M24.2178 20.775C29.8822 20.775 34.4351 21.9093 34.4355 23.3014C34.4355 24.6936 29.8824 25.8277 24.2178 25.8277C18.5531 25.8277 14 24.6936 14 23.3014C14.0004 21.9093 18.5533 20.775 24.2178 20.775ZM24.2178 21.1871C18.2884 21.1871 15.2173 22.7342 14.8467 23.3014C15.2173 23.817 18.2884 24.5904 24.2178 24.5904C30.1999 24.5904 33.2171 23.817 33.5879 23.3014C33.2163 22.7854 30.146 21.1871 24.2178 21.1871Z" fill="#00A478"/>
<path d="M26.6001 24.1266V21.2391C25.8589 21.1875 25.0648 21.136 24.2707 21.136C23.5295 21.136 22.8413 21.136 22.153 21.1875V24.075C22.7883 24.075 23.5295 24.1266 24.2707 24.1266C25.0648 24.1781 25.8589 24.1781 26.6001 24.1266Z" fill="#00A478"/>
<path d="M24.2177 25.8281C23.4765 25.8281 22.7883 25.8281 22.1 25.7766V33.4594H26.5471V25.725C25.8059 25.7766 25.0118 25.8281 24.2177 25.8281Z" fill="#00A478"/>
</svg>
