<svg width="48" height="48" viewBox="0 0 48 48" fill="none" xmlns="http://www.w3.org/2000/svg">
<rect y="0.000274658" width="48.0001" height="48.0001" rx="2" fill="#4281FF" fill-opacity="0.1"/>
<path d="M35.02 21C35.02 22.104 34.124 23 33.02 23C32.738 23 32.47 22.94 32.226 22.835L28.855 26.2061C28.96 26.4501 29.021 26.717 29.021 27C29.021 28.104 28.125 29 27.021 29C25.917 29 25.016 28.104 25.016 27C25.016 26.727 25.071 26.467 25.17 26.229L21.787 22.8459C21.551 22.9439 21.292 22.999 21.021 22.999C20.739 22.999 20.471 22.939 20.227 22.834L16.856 26.2051C16.961 26.4491 17.022 26.716 17.022 26.999C17.022 28.103 16.126 28.999 15.022 28.999C13.918 28.999 13.017 28.103 13.017 26.999C13.017 25.895 13.907 24.999 15.012 24.999H15.022C15.294 24.999 15.552 25.0541 15.788 25.1521L19.172 21.7681C19.073 21.5311 19.017 21.271 19.017 20.999C19.017 19.895 19.907 18.999 21.012 18.999H21.022C22.126 18.999 23.022 19.895 23.022 20.999C23.022 21.281 22.962 21.549 22.856 21.793L26.224 25.1609C26.465 25.0569 26.731 24.999 27.011 24.999H27.021C27.293 24.999 27.551 25.0541 27.787 25.1521L31.171 21.7681C31.072 21.5311 31.016 21.271 31.016 20.999C31.016 19.895 31.906 18.999 33.011 18.999H33.021C34.125 19 35.02 19.896 35.02 21Z" fill="#4281FF"/>
</svg>
