<svg width="48" height="48" viewBox="0 0 48 48" fill="none" xmlns="http://www.w3.org/2000/svg">
<rect y="9.15527e-05" width="48.0001" height="48.0001" rx="2" fill="#83BD67" fill-opacity="0.1"/>
<path fill-rule="evenodd" clip-rule="evenodd" d="M22.282 13C23.6001 13 24.9134 13 26.2314 13C26.1539 13.8916 26.0715 14.7881 25.9988 15.6798C27.535 15.7912 29.0324 16.2855 30.3795 17.0172C29.798 18.4807 29.2117 19.9442 28.6253 21.4076C27.4914 20.4433 25.9988 19.9103 24.5111 19.9296C24.138 19.9393 23.7503 20.012 23.4402 20.2252C23.2367 20.3658 23.0864 20.5838 23.0428 20.8261C23.0089 21.02 23.0186 21.238 23.1252 21.4125C23.2464 21.6063 23.4596 21.7226 23.6728 21.7953C24.1089 21.9504 24.579 21.9601 25.0345 22.0085C26.1054 22.1394 27.1812 22.3235 28.194 22.7063C28.9791 23.0068 29.7302 23.4574 30.2681 24.1165C30.7769 24.7222 31.0725 25.4879 31.1839 26.2729C31.3148 27.1791 31.276 28.1192 30.995 29.0012C30.7769 29.7087 30.4038 30.3677 29.9192 30.925C28.9161 32.088 27.4429 32.7858 25.931 32.9651C25.9794 33.9197 26.0376 34.8695 26.0909 35.8242C24.8407 35.8242 23.5953 35.8242 22.3499 35.8242C22.3983 34.8792 22.4613 33.9343 22.5049 32.9893C21.5018 32.9554 20.5084 32.7325 19.5732 32.3787C18.667 32.0347 17.8044 31.5792 17 31.0461C17.5912 29.5245 18.1824 28.0029 18.7784 26.4764C19.452 27.0434 20.1692 27.5716 20.9543 27.9738C21.7974 28.4051 22.7327 28.6813 23.6825 28.691C24.1332 28.6959 24.5984 28.6716 25.0248 28.5166C25.2865 28.4196 25.5433 28.25 25.6596 27.9835C25.7808 27.7025 25.7711 27.3487 25.5869 27.0967C25.4561 26.9271 25.2719 26.8108 25.0781 26.7284C24.8164 26.6218 24.5451 26.5637 24.2688 26.5201C23.2512 26.3553 22.2287 26.2196 21.245 25.8998C20.4551 25.6429 19.6846 25.2844 19.0547 24.7319C18.6573 24.3879 18.3278 23.9663 18.0952 23.4914C17.7463 22.7839 17.6154 21.9843 17.6251 21.1993C17.6251 20.3222 17.8044 19.4305 18.2405 18.66C18.6185 17.9719 19.1952 17.4098 19.8445 16.9785C20.6296 16.46 21.5067 16.1062 22.3983 15.8203C22.3596 14.8802 22.3208 13.9401 22.282 13Z" fill="#83BD67"/>
</svg>
