<svg width="48" height="48" viewBox="0 0 48 48" fill="none" xmlns="http://www.w3.org/2000/svg">
<rect y="0.000457764" width="48.0001" height="48.0001" rx="2" fill="#4281FF" fill-opacity="0.1"/>
<path d="M32.19 29.59L25.6 32.65C24.59 33.12 23.41 33.12 22.4 32.65L15.81 29.59C14.73 29.09 14.73 27.55 15.81 27.05L15.95 26.99L21.77 29.68C22.47 30.01 23.22 30.18 24 30.18C24.78 30.18 25.53 30.01 26.23 29.68L32.05 26.99L32.19 27.05C33.27 27.55 33.27 29.09 32.19 29.59ZM32.19 22.72L32.06 22.66L27.4 24.83L26.23 25.37C25.53 25.69 24.78 25.86 24 25.86C23.22 25.86 22.47 25.69 21.77 25.37L20.6 24.83L15.94 22.66L15.81 22.72C14.73 23.23 14.73 24.77 15.81 25.27L17.73 26.16L22.4 28.32C22.91 28.56 23.45 28.68 24 28.68C24.55 28.68 25.09 28.56 25.6 28.32L30.27 26.16L32.19 25.27C33.27 24.77 33.27 23.23 32.19 22.72ZM32.19 18.41L25.6 15.35C25.09 15.12 24.55 15 24 15C23.45 15 22.91 15.12 22.4 15.35L15.81 18.41C14.73 18.91 14.73 20.45 15.81 20.95L15.94 21.01L16.83 21.42L17.72 21.84L22.4 24.01C22.91 24.24 23.45 24.36 24 24.36C24.55 24.36 25.09 24.24 25.6 24.01L30.28 21.84L31.17 21.42L32.06 21.01L32.19 20.95C33.27 20.45 33.27 18.91 32.19 18.41Z" fill="#4281FF"/>
</svg>
