<svg width="48" height="48" viewBox="0 0 48 48" fill="none" xmlns="http://www.w3.org/2000/svg">
<rect y="0.000854492" width="48.0001" height="48.0001" rx="2" fill="white" fill-opacity="0.05"/>
<path d="M31.9309 20.369C31.5829 20.472 31.2129 20.512 30.8269 20.494C29.0639 20.416 27.5819 18.933 27.5039 17.169C27.4869 16.784 27.5259 16.414 27.6299 16.067C27.6739 15.918 27.613 15.758 27.47 15.697C25.953 15.055 24.217 14.822 22.399 15.137C19.189 15.692 16.4771 18.035 15.4651 21.132C14.6971 23.482 14.933 25.821 15.833 27.756C16.043 28.196 16.0431 28.706 15.8931 29.176L15.053 31.675C14.789 32.46 15.538 33.209 16.323 32.945L18.823 32.105C19.293 31.955 19.803 31.955 20.243 32.165C22.177 33.064 24.5131 33.301 26.8621 32.535C29.9601 31.524 32.3041 28.813 32.8611 25.602C33.1761 23.784 32.9431 22.046 32.3011 20.528C32.2401 20.386 32.0799 20.325 31.9309 20.369ZM20.0201 25C19.4681 25 19.0149 24.552 19.0149 24C19.0149 23.448 19.4581 23 20.0101 23H20.0201C20.5731 23 21.0201 23.448 21.0201 24C21.0201 24.552 20.5721 25 20.0201 25ZM24.0201 25C23.4681 25 23.0149 24.552 23.0149 24C23.0149 23.448 23.4581 23 24.0101 23H24.0201C24.5731 23 25.0201 23.448 25.0201 24C25.0201 24.552 24.5721 25 24.0201 25ZM28.0201 25C27.4681 25 27.0149 24.552 27.0149 24C27.0149 23.448 27.4581 23 28.0101 23H28.0201C28.5731 23 29.0201 23.448 29.0201 24C29.0201 24.552 28.5721 25 28.0201 25ZM29.001 17C29.001 15.895 29.897 15 31.001 15C32.105 15 33.001 15.895 33.001 17C33.001 18.105 32.105 19 31.001 19C29.897 19 29.001 18.105 29.001 17Z" fill="white"/>
</svg>
