<svg width="48" height="48" viewBox="0 0 48 48" fill="none" xmlns="http://www.w3.org/2000/svg">
<rect y="0.000732422" width="48.0001" height="48.0001" rx="2" fill="white" fill-opacity="0.05"/>
<path fill-rule="evenodd" clip-rule="evenodd" d="M31.5699 20.5861L25.606 15.585C24.677 14.806 23.3219 14.806 22.3929 15.585L16.429 20.5861C15.523 21.3461 14.999 21.653 14.999 23.651V30C14.999 32 15.999 33 17.999 33H29.999C31.999 33 32.999 32 32.999 30V23.651C33 21.652 32.4769 21.3461 31.5699 20.5861ZM28.106 24.9881L26.576 26.468C26.464 26.576 26.4129 26.732 26.4399 26.885L26.79 28.9101C26.861 29.3211 26.428 29.6341 26.056 29.4411L24.22 28.4831C24.082 28.4111 23.918 28.4111 23.78 28.4831L21.9449 29.44C21.5729 29.634 21.139 29.3201 21.21 28.9091L21.5601 26.885C21.5861 26.732 21.535 26.576 21.424 26.468L19.894 24.9881C19.613 24.7161 19.768 24.2421 20.156 24.1861L22.2729 23.881C22.4269 23.859 22.56 23.763 22.629 23.624L23.546 21.781C23.732 21.407 24.269 21.407 24.455 21.781L25.3719 23.624C25.4409 23.763 25.574 23.859 25.728 23.881L27.845 24.1861C28.233 24.2421 28.387 24.7171 28.106 24.9881Z" fill="white"/>
</svg>
