<svg width="48" height="48" viewBox="0 0 48 48" fill="none" xmlns="http://www.w3.org/2000/svg">
<rect width="48.0001" height="48.0001" rx="2" fill="#06C16A" fill-opacity="0.1"/>
<path d="M31.9309 20.3684C31.5829 20.4714 31.2129 20.5114 30.8269 20.4934C29.0639 20.4154 27.5819 18.9323 27.5039 17.1683C27.4869 16.7833 27.5259 16.4134 27.6299 16.0664C27.6739 15.9174 27.613 15.7574 27.47 15.6964C25.953 15.0544 24.217 14.8214 22.399 15.1364C19.189 15.6914 16.4771 18.0344 15.4651 21.1314C14.6971 23.4814 14.933 25.8203 15.833 27.7553C16.043 28.1953 16.0431 28.7054 15.8931 29.1754L15.053 31.6743C14.789 32.4593 15.538 33.2083 16.323 32.9443L18.823 32.1043C19.293 31.9543 19.803 31.9543 20.243 32.1643C22.177 33.0633 24.5131 33.3003 26.8621 32.5343C29.9601 31.5233 32.3041 28.8123 32.8611 25.6013C33.1761 23.7833 32.9431 22.0454 32.3011 20.5274C32.2401 20.3854 32.0799 20.3244 31.9309 20.3684ZM20.0201 24.9993C19.4681 24.9993 19.0149 24.5513 19.0149 23.9993C19.0149 23.4473 19.4581 22.9993 20.0101 22.9993H20.0201C20.5731 22.9993 21.0201 23.4473 21.0201 23.9993C21.0201 24.5513 20.5721 24.9993 20.0201 24.9993ZM24.0201 24.9993C23.4681 24.9993 23.0149 24.5513 23.0149 23.9993C23.0149 23.4473 23.4581 22.9993 24.0101 22.9993H24.0201C24.5731 22.9993 25.0201 23.4473 25.0201 23.9993C25.0201 24.5513 24.5721 24.9993 24.0201 24.9993ZM28.0201 24.9993C27.4681 24.9993 27.0149 24.5513 27.0149 23.9993C27.0149 23.4473 27.4581 22.9993 28.0101 22.9993H28.0201C28.5731 22.9993 29.0201 23.4473 29.0201 23.9993C29.0201 24.5513 28.5721 24.9993 28.0201 24.9993ZM29.001 16.9993C29.001 15.8943 29.897 14.9993 31.001 14.9993C32.105 14.9993 33.001 15.8943 33.001 16.9993C33.001 18.1043 32.105 18.9993 31.001 18.9993C29.897 18.9993 29.001 18.1043 29.001 16.9993Z" fill="#06C16A"/>
</svg>
