<svg width="16" height="17" viewBox="0 0 16 17" fill="none" xmlns="http://www.w3.org/2000/svg">
<path d="M11.66 6.40674L8.01333 8.5L4.34666 6.40674C3.71999 6.05341 3.33331 5.83334 3.33331 4.67334V3.5C3.33331 2.94667 3.77998 2.5 4.33331 2.5H11.6666C12.22 2.5 12.6666 2.94667 12.6666 3.5V4.67334C12.6666 5.83334 12.28 6.05341 11.66 6.40674ZM3.33331 12.3267V13.5C3.33331 14.0533 3.77998 14.5 4.33331 14.5H11.6666C12.22 14.5 12.6666 14.0533 12.6666 13.5V12.3267C12.6666 11.1667 12.28 10.9466 11.66 10.5933L8.01333 8.5L4.34666 10.5933C3.71999 10.9466 3.33331 11.1667 3.33331 12.3267Z" fill="#4281FF"/>
</svg>
