<svg width="20" height="20" viewBox="0 0 20 20" fill="none" xmlns="http://www.w3.org/2000/svg">
<path d="M10 1.66663C5.39752 1.66663 1.66669 5.39746 1.66669 9.99996C1.66669 14.6025 5.39752 18.3333 10 18.3333C14.6025 18.3333 18.3334 14.6025 18.3334 9.99996C18.3334 5.39746 14.6025 1.66663 10 1.66663ZM7.70835 6.66663C8.28335 6.66663 8.75002 7.13329 8.75002 7.70829C8.75002 8.28329 8.28335 8.74996 7.70835 8.74996C7.13335 8.74996 6.66669 8.28329 6.66669 7.70829C6.66669 7.13329 7.13335 6.66663 7.70835 6.66663ZM12.2917 13.3333C11.7167 13.3333 11.25 12.8666 11.25 12.2916C11.25 11.7166 11.7167 11.25 12.2917 11.25C12.8667 11.25 13.3334 11.7166 13.3334 12.2916C13.3334 12.8666 12.8667 13.3333 12.2917 13.3333ZM13.775 7.10832L7.10838 13.775C6.98671 13.8967 6.82669 13.9583 6.66669 13.9583C6.50669 13.9583 6.34666 13.8975 6.225 13.775C5.98083 13.5308 5.98083 13.135 6.225 12.8908L12.8917 6.22412C13.1358 5.97995 13.5317 5.97995 13.7759 6.22412C14.02 6.46829 14.0192 6.86415 13.775 7.10832Z" fill="white"/>
</svg>
