<svg width="16" height="17" viewBox="0 0 16 17" fill="none" xmlns="http://www.w3.org/2000/svg">
<path d="M8.00002 15.1666C11.682 15.1666 14.6667 12.182 14.6667 8.49996C14.6667 4.81796 11.682 1.83329 8.00002 1.83329C4.31802 1.83329 1.33336 4.81796 1.33336 8.49996C1.33336 12.182 4.31802 15.1666 8.00002 15.1666ZM5.64667 8.81327L7.64667 6.81327C7.744 6.71594 7.87202 6.66663 8.00002 6.66663C8.12802 6.66663 8.25604 6.71527 8.35337 6.81327L10.3534 8.81327C10.5487 9.00861 10.5487 9.3253 10.3534 9.52063C10.158 9.71596 9.84135 9.71596 9.64602 9.52063L7.99937 7.87398L6.35272 9.52063C6.15739 9.71596 5.8407 9.71596 5.64537 9.52063C5.45003 9.3253 5.45134 9.00861 5.64667 8.81327Z" fill="white"/>
</svg>
