<svg width="16" height="17" viewBox="0 0 16 17" fill="none" xmlns="http://www.w3.org/2000/svg">
<path d="M8.00002 15.1667C11.682 15.1667 14.6667 12.182 14.6667 8.50002C14.6667 4.81802 11.682 1.83335 8.00002 1.83335C4.31802 1.83335 1.33336 4.81802 1.33336 8.50002C1.33336 12.182 4.31802 15.1667 8.00002 15.1667ZM5.64667 8.81333L7.64667 6.81333C7.744 6.716 7.87202 6.66669 8.00002 6.66669C8.12802 6.66669 8.25604 6.71533 8.35337 6.81333L10.3534 8.81333C10.5487 9.00867 10.5487 9.32536 10.3534 9.52069C10.158 9.71602 9.84135 9.71602 9.64602 9.52069L7.99937 7.87404L6.35272 9.52069C6.15739 9.71602 5.8407 9.71602 5.64537 9.52069C5.45003 9.32536 5.45134 9.00867 5.64667 8.81333Z" fill="#F7374C"/>
</svg>
