<svg width="16" height="17" viewBox="0 0 16 17" fill="none" xmlns="http://www.w3.org/2000/svg">
<path d="M7.99998 1.83325C4.31998 1.83325 1.33331 4.81992 1.33331 8.49992C1.33331 12.1799 4.31998 15.1666 7.99998 15.1666C11.68 15.1666 14.6666 12.1799 14.6666 8.49992C14.6666 4.81992 11.68 1.83325 7.99998 1.83325ZM10.3533 10.1466C10.5466 10.3399 10.5466 10.6599 10.3533 10.8533C10.2533 10.9533 10.1266 10.9999 9.99998 10.9999C9.87331 10.9999 9.74665 10.9533 9.64665 10.8533L7.99998 9.20658L6.35331 10.8533C6.25331 10.9533 6.12665 10.9999 5.99998 10.9999C5.87331 10.9999 5.74665 10.9533 5.64665 10.8533C5.45331 10.6599 5.45331 10.3399 5.64665 10.1466L7.29331 8.49992L5.64665 6.85327C5.45331 6.65994 5.45331 6.3399 5.64665 6.14657C5.83998 5.95323 6.15998 5.95323 6.35331 6.14657L7.99998 7.79325L9.64665 6.14657C9.83998 5.95323 10.16 5.95323 10.3533 6.14657C10.5466 6.3399 10.5466 6.65994 10.3533 6.85327L8.70664 8.49992L10.3533 10.1466Z" fill="#F7374C"/>
</svg>
